<mxfile host="drawio-plugin" modified="2024-01-17T22:44:35.338Z" agent="5.0 (Windows NT 6.2; Win64; x64) AppleWebKit/537.36 (KHTML, like Gecko) Chrome/104.0.5112.102 Safari/537.36" etag="ulIJuyM5y1GvJMxcFe42" version="20.5.3" type="embed"><diagram id="23iRSUPoRavnBvh4doch" name="Page-1"><mxGraphModel dx="3911" dy="1506" grid="1" gridSize="10" guides="1" tooltips="1" connect="1" arrows="1" fold="1" page="1" pageScale="1" pageWidth="827" pageHeight="1169" math="0" shadow="0"><root><mxCell id="0"/><mxCell id="1" parent="0"/><mxCell id="2" value="Початок" style="ellipse;whiteSpace=wrap;html=1;fontColor=#FFFFFF;" vertex="1" parent="1"><mxGeometry x="-250" y="370" width="120" height="80" as="geometry"/></mxCell><mxCell id="3" style="edgeStyle=orthogonalEdgeStyle;rounded=0;orthogonalLoop=1;jettySize=auto;html=1;entryX=0.5;entryY=0;entryDx=0;entryDy=0;fontColor=#FFFFFF;" edge="1" parent="1" source="4" target="7"><mxGeometry relative="1" as="geometry"/></mxCell><mxCell id="4" value="Введення:&lt;br&gt;&lt;div style=&quot;background-color: rgb(43, 43, 43); font-family: &amp;quot;JetBrains Mono&amp;quot;, monospace;&quot;&gt;&lt;pre&gt;int arr[]&lt;span style=&quot;&quot;&gt;, int &lt;/span&gt;n&lt;/pre&gt;&lt;/div&gt;" style="shape=parallelogram;perimeter=parallelogramPerimeter;whiteSpace=wrap;html=1;fixedSize=1;fontColor=#FFFFFF;" vertex="1" parent="1"><mxGeometry x="-270" y="500" width="150" height="70" as="geometry"/></mxCell><mxCell id="5" style="edgeStyle=orthogonalEdgeStyle;rounded=0;orthogonalLoop=1;jettySize=auto;html=1;entryX=0.5;entryY=0;entryDx=0;entryDy=0;fontColor=#FFFFFF;" edge="1" parent="1" source="7" target="10"><mxGeometry relative="1" as="geometry"/></mxCell><mxCell id="6" style="edgeStyle=orthogonalEdgeStyle;rounded=0;orthogonalLoop=1;jettySize=auto;html=1;entryX=1;entryY=0.5;entryDx=0;entryDy=0;fontColor=#FFFFFF;" edge="1" parent="1" source="7" target="36"><mxGeometry relative="1" as="geometry"/></mxCell><mxCell id="7" value="&lt;div style=&quot;background-color: rgb(43, 43, 43); font-family: &amp;quot;JetBrains Mono&amp;quot;, monospace;&quot;&gt;&lt;pre&gt;intcurr_size =n&lt;span style=&quot;&quot;&gt;;&lt;/span&gt;curr_size&amp;gt;&lt;span style=&quot;&quot;&gt;1&lt;/span&gt;&lt;span style=&quot;&quot;&gt;;&lt;/span&gt;--curr_size&lt;/pre&gt;&lt;/div&gt;" style="shape=hexagon;perimeter=hexagonPerimeter2;whiteSpace=wrap;html=1;fixedSize=1;fontColor=#FFFFFF;" vertex="1" parent="1"><mxGeometry x="-325" y="620" width="270" height="110" as="geometry"/></mxCell><mxCell id="8" style="edgeStyle=orthogonalEdgeStyle;rounded=0;orthogonalLoop=1;jettySize=auto;html=1;entryX=0.5;entryY=0;entryDx=0;entryDy=0;fontColor=#FFFFFF;" edge="1" parent="1" source="10" target="28"><mxGeometry relative="1" as="geometry"/></mxCell><mxCell id="9" style="edgeStyle=orthogonalEdgeStyle;rounded=0;orthogonalLoop=1;jettySize=auto;html=1;entryX=0;entryY=0.5;entryDx=0;entryDy=0;fontColor=#FFFFFF;" edge="1" parent="1" source="10" target="12"><mxGeometry relative="1" as="geometry"/></mxCell><mxCell id="10" value="&lt;div style=&quot;background-color: rgb(43, 43, 43); font-family: &amp;quot;JetBrains Mono&amp;quot;, monospace;&quot;&gt;&lt;pre&gt;int mi = &lt;span style=&quot;font-style:italic;&quot;&gt;findMax&lt;/span&gt;(arr&lt;span style=&quot;&quot;&gt;, &lt;/span&gt;curr_size)&lt;span style=&quot;&quot;&gt;;&lt;/span&gt;&lt;/pre&gt;&lt;/div&gt;" style="rounded=0;whiteSpace=wrap;html=1;fontColor=#FFFFFF;" vertex="1" parent="1"><mxGeometry x="-290" y="780" width="220" height="90" as="geometry"/></mxCell><mxCell id="11" style="edgeStyle=orthogonalEdgeStyle;rounded=0;orthogonalLoop=1;jettySize=auto;html=1;entryX=0.5;entryY=0;entryDx=0;entryDy=0;fontColor=#FFFFFF;" edge="1" parent="1" source="12" target="14"><mxGeometry relative="1" as="geometry"/></mxCell><mxCell id="12" value="&lt;div style=&quot;background-color: rgb(43, 43, 43); font-family: &amp;quot;JetBrains Mono&amp;quot;, monospace;&quot;&gt;&lt;pre&gt;findMax(&lt;span style=&quot;&quot;&gt;int &lt;/span&gt;arr[]&lt;span style=&quot;&quot;&gt;, int &lt;/span&gt;n)&lt;/pre&gt;&lt;/div&gt;" style="ellipse;whiteSpace=wrap;html=1;fontColor=#FFFFFF;" vertex="1" parent="1"><mxGeometry x="240" y="775" width="220" height="100" as="geometry"/></mxCell><mxCell id="13" style="edgeStyle=orthogonalEdgeStyle;rounded=0;orthogonalLoop=1;jettySize=auto;html=1;entryX=0.5;entryY=0;entryDx=0;entryDy=0;fontColor=#FFFFFF;" edge="1" parent="1" source="14" target="17"><mxGeometry relative="1" as="geometry"/></mxCell><mxCell id="14" value="&lt;div style=&quot;background-color: rgb(43, 43, 43); font-family: &amp;quot;JetBrains Mono&amp;quot;, monospace;&quot;&gt;&lt;pre&gt;int mi&lt;span style=&quot;&quot;&gt;, &lt;/span&gt;i&lt;span style=&quot;&quot;&gt;;&lt;br&gt;&lt;/span&gt;&lt;/pre&gt;&lt;/div&gt;" style="rounded=0;whiteSpace=wrap;html=1;fontColor=#FFFFFF;" vertex="1" parent="1"><mxGeometry x="290" y="940" width="120" height="60" as="geometry"/></mxCell><mxCell id="15" style="edgeStyle=orthogonalEdgeStyle;rounded=0;orthogonalLoop=1;jettySize=auto;html=1;entryX=0.5;entryY=0;entryDx=0;entryDy=0;fontColor=#FFFFFF;" edge="1" parent="1" source="17" target="20"><mxGeometry relative="1" as="geometry"/></mxCell><mxCell id="16" style="edgeStyle=orthogonalEdgeStyle;rounded=0;orthogonalLoop=1;jettySize=auto;html=1;entryX=0;entryY=0.5;entryDx=0;entryDy=0;fontColor=#FFFFFF;" edge="1" parent="1" source="17" target="24"><mxGeometry relative="1" as="geometry"/></mxCell><mxCell id="17" value="&lt;div style=&quot;background-color: rgb(43, 43, 43); font-family: &amp;quot;JetBrains Mono&amp;quot;, monospace;&quot;&gt;&lt;pre&gt;mi = 0&lt;span style=&quot;&quot;&gt;, &lt;/span&gt;i = &lt;span style=&quot;&quot;&gt;0&lt;/span&gt;&lt;span style=&quot;&quot;&gt;; &lt;/span&gt;i &amp;lt; n&lt;span style=&quot;&quot;&gt;; &lt;/span&gt;++i&lt;/pre&gt;&lt;/div&gt;" style="shape=hexagon;perimeter=hexagonPerimeter2;whiteSpace=wrap;html=1;fixedSize=1;fontColor=#FFFFFF;" vertex="1" parent="1"><mxGeometry x="260" y="1040" width="180" height="100" as="geometry"/></mxCell><mxCell id="18" style="edgeStyle=orthogonalEdgeStyle;rounded=0;orthogonalLoop=1;jettySize=auto;html=1;entryX=0.5;entryY=0;entryDx=0;entryDy=0;fontColor=#FFFFFF;" edge="1" parent="1" source="20" target="22"><mxGeometry relative="1" as="geometry"/></mxCell><mxCell id="19" style="edgeStyle=orthogonalEdgeStyle;rounded=0;orthogonalLoop=1;jettySize=auto;html=1;entryX=1;entryY=0.75;entryDx=0;entryDy=0;fontColor=#FFFFFF;" edge="1" parent="1" source="20" target="17"><mxGeometry relative="1" as="geometry"><Array as="points"><mxPoint x="431" y="1230"/></Array></mxGeometry></mxCell><mxCell id="20" value="&lt;div style=&quot;background-color: rgb(43, 43, 43); font-family: &amp;quot;JetBrains Mono&amp;quot;, monospace;&quot;&gt;&lt;pre&gt;arr[i] &amp;gt; arr[mi]&lt;/pre&gt;&lt;/div&gt;" style="rhombus;whiteSpace=wrap;html=1;fontColor=#FFFFFF;" vertex="1" parent="1"><mxGeometry x="290" y="1180" width="120" height="100" as="geometry"/></mxCell><mxCell id="21" style="edgeStyle=orthogonalEdgeStyle;rounded=0;orthogonalLoop=1;jettySize=auto;html=1;entryX=0;entryY=0.5;entryDx=0;entryDy=0;fontColor=#FFFFFF;" edge="1" parent="1" source="22" target="17"><mxGeometry relative="1" as="geometry"><Array as="points"><mxPoint x="240" y="1340"/><mxPoint x="240" y="1090"/></Array></mxGeometry></mxCell><mxCell id="22" value="&lt;div style=&quot;background-color: rgb(43, 43, 43); font-family: &amp;quot;JetBrains Mono&amp;quot;, monospace;&quot;&gt;&lt;pre&gt;mi = i;&lt;/pre&gt;&lt;/div&gt;" style="rounded=0;whiteSpace=wrap;html=1;fontColor=#FFFFFF;" vertex="1" parent="1"><mxGeometry x="290" y="1310" width="120" height="60" as="geometry"/></mxCell><mxCell id="23" style="edgeStyle=orthogonalEdgeStyle;rounded=0;orthogonalLoop=1;jettySize=auto;html=1;entryX=0;entryY=0.5;entryDx=0;entryDy=0;fontColor=#FFFFFF;" edge="1" parent="1" source="24" target="25"><mxGeometry relative="1" as="geometry"/></mxCell><mxCell id="24" value="&lt;div style=&quot;background-color: rgb(43, 43, 43); font-family: &amp;quot;JetBrains Mono&amp;quot;, monospace;&quot;&gt;&lt;pre&gt;return mi&lt;span style=&quot;&quot;&gt;;&lt;/span&gt;&lt;/pre&gt;&lt;/div&gt;" style="rounded=0;whiteSpace=wrap;html=1;fontColor=#FFFFFF;" vertex="1" parent="1"><mxGeometry x="500" y="1060" width="120" height="60" as="geometry"/></mxCell><mxCell id="25" value="Кінець" style="ellipse;whiteSpace=wrap;html=1;fontColor=#FFFFFF;" vertex="1" parent="1"><mxGeometry x="700" y="1050" width="120" height="80" as="geometry"/></mxCell><mxCell id="26" style="edgeStyle=orthogonalEdgeStyle;rounded=0;orthogonalLoop=1;jettySize=auto;html=1;entryX=0.5;entryY=0;entryDx=0;entryDy=0;fontColor=#FFFFFF;" edge="1" parent="1" source="28" target="34"><mxGeometry relative="1" as="geometry"/></mxCell><mxCell id="27" style="edgeStyle=orthogonalEdgeStyle;rounded=0;orthogonalLoop=1;jettySize=auto;html=1;entryX=1;entryY=0.75;entryDx=0;entryDy=0;fontColor=#FFFFFF;" edge="1" parent="1" source="28" target="7"><mxGeometry relative="1" as="geometry"><Array as="points"><mxPoint x="10" y="970"/><mxPoint x="10" y="701"/></Array></mxGeometry></mxCell><mxCell id="28" value="&lt;div style=&quot;background-color: rgb(43, 43, 43); font-family: &amp;quot;JetBrains Mono&amp;quot;, monospace;&quot;&gt;&lt;pre&gt;mi != curr_size-1&lt;/pre&gt;&lt;/div&gt;" style="rhombus;whiteSpace=wrap;html=1;fontColor=#FFFFFF;" vertex="1" parent="1"><mxGeometry x="-240" y="920" width="120" height="100" as="geometry"/></mxCell><mxCell id="29" style="edgeStyle=orthogonalEdgeStyle;rounded=0;orthogonalLoop=1;jettySize=auto;html=1;entryX=1;entryY=0.75;entryDx=0;entryDy=0;fontColor=#FFFFFF;" edge="1" parent="1" source="31" target="7"><mxGeometry relative="1" as="geometry"><Array as="points"><mxPoint x="-30" y="1205"/><mxPoint x="-30" y="701"/></Array></mxGeometry></mxCell><mxCell id="30" style="edgeStyle=orthogonalEdgeStyle;rounded=0;orthogonalLoop=1;jettySize=auto;html=1;entryX=1;entryY=0.5;entryDx=0;entryDy=0;fontColor=#FFFFFF;" edge="1" parent="1" source="31" target="39"><mxGeometry relative="1" as="geometry"/></mxCell><mxCell id="31" value="&lt;div style=&quot;background-color: rgb(43, 43, 43); font-family: &amp;quot;JetBrains Mono&amp;quot;, monospace;&quot;&gt;&lt;pre&gt;flip(arr&lt;span style=&quot;&quot;&gt;, &lt;/span&gt;mi)&lt;span style=&quot;&quot;&gt;;&lt;/span&gt;&lt;/pre&gt;&lt;/div&gt;" style="rounded=0;whiteSpace=wrap;html=1;fontColor=#FFFFFF;" vertex="1" parent="1"><mxGeometry x="-252.5" y="1170" width="145" height="70" as="geometry"/></mxCell><mxCell id="32" style="edgeStyle=orthogonalEdgeStyle;rounded=0;orthogonalLoop=1;jettySize=auto;html=1;entryX=0.5;entryY=0;entryDx=0;entryDy=0;fontColor=#FFFFFF;" edge="1" parent="1" source="34" target="31"><mxGeometry relative="1" as="geometry"/></mxCell><mxCell id="33" style="edgeStyle=orthogonalEdgeStyle;rounded=0;orthogonalLoop=1;jettySize=auto;html=1;entryX=1;entryY=0.5;entryDx=0;entryDy=0;fontColor=#FFFFFF;" edge="1" parent="1" source="34" target="39"><mxGeometry relative="1" as="geometry"/></mxCell><mxCell id="34" value="&lt;div style=&quot;background-color: rgb(43, 43, 43); font-family: &amp;quot;JetBrains Mono&amp;quot;, monospace;&quot;&gt;&lt;pre&gt;&lt;div style=&quot;font-family: &amp;quot;JetBrains Mono&amp;quot;, monospace;&quot;&gt;&lt;pre&gt;flip(arr&lt;span style=&quot;&quot;&gt;, &lt;/span&gt;curr_size-&lt;span style=&quot;&quot;&gt;1&lt;/span&gt;)&lt;span style=&quot;&quot;&gt;;&lt;br&gt;&lt;/span&gt;&lt;/pre&gt;&lt;/div&gt;&lt;/pre&gt;&lt;/div&gt;" style="rounded=0;whiteSpace=wrap;html=1;fontColor=#FFFFFF;" vertex="1" parent="1"><mxGeometry x="-255" y="1060" width="150" height="70" as="geometry"/></mxCell><mxCell id="35" style="edgeStyle=orthogonalEdgeStyle;rounded=0;orthogonalLoop=1;jettySize=auto;html=1;entryX=1;entryY=0.5;entryDx=0;entryDy=0;fontColor=#FFFFFF;" edge="1" parent="1" source="36" target="37"><mxGeometry relative="1" as="geometry"/></mxCell><mxCell id="36" value="&lt;div style=&quot;background-color: rgb(43, 43, 43); font-family: &amp;quot;JetBrains Mono&amp;quot;, monospace;&quot;&gt;&lt;pre&gt;return &lt;span style=&quot;&quot;&gt;0&lt;/span&gt;&lt;span style=&quot;&quot;&gt;;&lt;/span&gt;&lt;/pre&gt;&lt;/div&gt;" style="rounded=0;whiteSpace=wrap;html=1;fontColor=#FFFFFF;" vertex="1" parent="1"><mxGeometry x="-500" y="645" width="120" height="60" as="geometry"/></mxCell><mxCell id="37" value="Кінець" style="ellipse;whiteSpace=wrap;html=1;fontColor=#FFFFFF;" vertex="1" parent="1"><mxGeometry x="-690" y="635" width="120" height="80" as="geometry"/></mxCell><mxCell id="38" style="edgeStyle=orthogonalEdgeStyle;rounded=0;orthogonalLoop=1;jettySize=auto;html=1;entryX=0.5;entryY=0;entryDx=0;entryDy=0;fontColor=#FFFFFF;" edge="1" parent="1" source="39" target="41"><mxGeometry relative="1" as="geometry"/></mxCell><mxCell id="39" value="&lt;div style=&quot;background-color: rgb(43, 43, 43); font-family: &amp;quot;JetBrains Mono&amp;quot;, monospace;&quot;&gt;&lt;pre&gt;flip(&lt;span style=&quot;&quot;&gt;int &lt;/span&gt;arr[]&lt;span style=&quot;&quot;&gt;, int &lt;/span&gt;i)&lt;/pre&gt;&lt;/div&gt;" style="ellipse;whiteSpace=wrap;html=1;fontColor=#FFFFFF;" vertex="1" parent="1"><mxGeometry x="-640" y="1047.5" width="180" height="95" as="geometry"/></mxCell><mxCell id="40" style="edgeStyle=orthogonalEdgeStyle;rounded=0;orthogonalLoop=1;jettySize=auto;html=1;entryX=0.5;entryY=0;entryDx=0;entryDy=0;fontColor=#FFFFFF;" edge="1" parent="1" source="41" target="44"><mxGeometry relative="1" as="geometry"/></mxCell><mxCell id="41" value="&lt;div style=&quot;background-color: rgb(43, 43, 43); font-family: &amp;quot;JetBrains Mono&amp;quot;, monospace;&quot;&gt;&lt;pre&gt;int temp&lt;span style=&quot;&quot;&gt;, &lt;/span&gt;start = &lt;span style=&quot;&quot;&gt;0&lt;/span&gt;&lt;span style=&quot;&quot;&gt;;&lt;/span&gt;&lt;/pre&gt;&lt;/div&gt;" style="rounded=0;whiteSpace=wrap;html=1;fontColor=#FFFFFF;" vertex="1" parent="1"><mxGeometry x="-620" y="1180" width="140" height="60" as="geometry"/></mxCell><mxCell id="42" style="edgeStyle=orthogonalEdgeStyle;rounded=0;orthogonalLoop=1;jettySize=auto;html=1;entryX=0.5;entryY=0;entryDx=0;entryDy=0;fontColor=#FFFFFF;" edge="1" parent="1" source="44" target="46"><mxGeometry relative="1" as="geometry"/></mxCell><mxCell id="43" style="edgeStyle=orthogonalEdgeStyle;rounded=0;orthogonalLoop=1;jettySize=auto;html=1;fontColor=#FFFFFF;" edge="1" parent="1" source="44"><mxGeometry relative="1" as="geometry"><mxPoint x="-740.0000000000001" y="1309.9999999999998" as="targetPoint"/></mxGeometry></mxCell><mxCell id="44" value="&lt;div style=&quot;background-color: rgb(43, 43, 43); font-family: &amp;quot;JetBrains Mono&amp;quot;, monospace;&quot;&gt;&lt;pre&gt;while (start &amp;lt; i)&lt;/pre&gt;&lt;/div&gt;" style="shape=hexagon;perimeter=hexagonPerimeter2;whiteSpace=wrap;html=1;fixedSize=1;fontColor=#FFFFFF;" vertex="1" parent="1"><mxGeometry x="-610" y="1270" width="120" height="80" as="geometry"/></mxCell><mxCell id="45" style="edgeStyle=orthogonalEdgeStyle;rounded=0;orthogonalLoop=1;jettySize=auto;html=1;entryX=1;entryY=0.5;entryDx=0;entryDy=0;fontColor=#FFFFFF;" edge="1" parent="1" source="46" target="44"><mxGeometry relative="1" as="geometry"><Array as="points"><mxPoint x="-420" y="1430"/><mxPoint x="-420" y="1310"/></Array></mxGeometry></mxCell><mxCell id="46" value="&lt;div style=&quot;background-color: rgb(43, 43, 43); font-family: &amp;quot;JetBrains Mono&amp;quot;, monospace;&quot;&gt;&lt;pre&gt;temp = arr[start];&lt;br&gt;arr[start] = arr[i]&lt;span style=&quot;&quot;&gt;;&lt;br&gt;&lt;/span&gt;arr[i] = temp&lt;span style=&quot;&quot;&gt;;&lt;br&gt;&lt;/span&gt;start++&lt;span style=&quot;&quot;&gt;;&lt;br&gt;&lt;/span&gt;i--&lt;span style=&quot;&quot;&gt;;&lt;/span&gt;&lt;/pre&gt;&lt;/div&gt;" style="rounded=0;whiteSpace=wrap;html=1;fontColor=#FFFFFF;" vertex="1" parent="1"><mxGeometry x="-645" y="1380" width="190" height="110" as="geometry"/></mxCell><mxCell id="47" style="edgeStyle=orthogonalEdgeStyle;rounded=0;orthogonalLoop=1;jettySize=auto;html=1;entryX=0.554;entryY=-0.03;entryDx=0;entryDy=0;entryPerimeter=0;fontColor=#FFFFFF;" edge="1" parent="1" source="2" target="4"><mxGeometry relative="1" as="geometry"/></mxCell><mxCell id="48" value="Кінець" style="ellipse;whiteSpace=wrap;html=1;fontColor=#FFFFFF;" vertex="1" parent="1"><mxGeometry x="-860" y="1270" width="120" height="80" as="geometry"/></mxCell><mxCell id="49" value="&lt;b&gt;Так&lt;/b&gt;" style="text;html=1;align=center;verticalAlign=middle;resizable=0;points=[];autosize=1;strokeColor=none;fillColor=none;fontColor=#FFFFFF;" vertex="1" parent="1"><mxGeometry x="-230" y="730" width="40" height="30" as="geometry"/></mxCell><mxCell id="50" value="&lt;b&gt;Так&lt;/b&gt;" style="text;html=1;align=center;verticalAlign=middle;resizable=0;points=[];autosize=1;strokeColor=none;fillColor=none;fontColor=#FFFFFF;" vertex="1" parent="1"><mxGeometry x="-180" y="1010" width="40" height="30" as="geometry"/></mxCell><mxCell id="51" value="&lt;b&gt;Так&lt;/b&gt;" style="text;html=1;align=center;verticalAlign=middle;resizable=0;points=[];autosize=1;strokeColor=none;fillColor=none;fontColor=#FFFFFF;" vertex="1" parent="1"><mxGeometry x="350" y="1142.5" width="40" height="30" as="geometry"/></mxCell><mxCell id="52" value="&lt;b&gt;Так&lt;/b&gt;" style="text;html=1;align=center;verticalAlign=middle;resizable=0;points=[];autosize=1;strokeColor=none;fillColor=none;fontColor=#FFFFFF;" vertex="1" parent="1"><mxGeometry x="350" y="1270" width="40" height="30" as="geometry"/></mxCell><mxCell id="53" value="&lt;b&gt;Ні&lt;/b&gt;" style="text;html=1;align=center;verticalAlign=middle;resizable=0;points=[];autosize=1;strokeColor=none;fillColor=none;fontColor=#FFFFFF;" vertex="1" parent="1"><mxGeometry x="430" y="1060" width="40" height="30" as="geometry"/></mxCell><mxCell id="54" value="&lt;b&gt;Ні&lt;/b&gt;" style="text;html=1;align=center;verticalAlign=middle;resizable=0;points=[];autosize=1;strokeColor=none;fillColor=none;fontColor=#FFFFFF;" vertex="1" parent="1"><mxGeometry x="390" y="1230" width="40" height="30" as="geometry"/></mxCell><mxCell id="55" value="&lt;b&gt;Ні&lt;/b&gt;" style="text;html=1;align=center;verticalAlign=middle;resizable=0;points=[];autosize=1;strokeColor=none;fillColor=none;fontColor=#FFFFFF;" vertex="1" parent="1"><mxGeometry x="-140" y="940" width="40" height="30" as="geometry"/></mxCell><mxCell id="56" value="&lt;b&gt;Так&lt;/b&gt;" style="text;html=1;align=center;verticalAlign=middle;resizable=0;points=[];autosize=1;strokeColor=none;fillColor=none;fontColor=#FFFFFF;" vertex="1" parent="1"><mxGeometry x="-550" y="1350" width="40" height="30" as="geometry"/></mxCell><mxCell id="57" value="&lt;b&gt;Ні&lt;/b&gt;" style="text;html=1;align=center;verticalAlign=middle;resizable=0;points=[];autosize=1;strokeColor=none;fillColor=none;fontColor=#FFFFFF;" vertex="1" parent="1"><mxGeometry x="-640" y="1280" width="40" height="30" as="geometry"/></mxCell><mxCell id="58" value="&lt;b&gt;Ні&lt;/b&gt;" style="text;html=1;align=center;verticalAlign=middle;resizable=0;points=[];autosize=1;strokeColor=none;fillColor=none;fontColor=#FFFFFF;" vertex="1" parent="1"><mxGeometry x="-350" y="645" width="40" height="30" as="geometry"/></mxCell></root></mxGraphModel></diagram></mxfile>